<svg width="64" height="64" viewBox="0 0 64 64" fill="none" xmlns="http://www.w3.org/2000/svg">
<g clip-path="url(#clip0_58_37797)">
<path d="M19.6549 4.60109L37.8815 5.73249L37.7312 5.77021L49.7195 0.226306L49.8698 0.150879L50.0201 0.188593L56.5591 2.26284L56.7846 2.33827L56.8598 2.60226L57.3859 4.3748L57.2356 4.11081L63.474 9.23986L63.8122 9.50386L63.6243 9.9187L61.7077 14.1426L61.5198 14.5575L61.0313 14.4821L56.7846 13.7655L57.4611 13.4638L55.3566 16.7072L55.2814 16.858L55.1311 16.9334L52.087 18.6683L52.2374 17.5369L57.7242 22.9299L57.3483 22.7413L59.3401 23.1939L59.6784 23.2693L59.8287 23.6087L60.3924 24.5893L61.1064 25.7207L59.9038 26.211L55.2062 26.2487H54.9808L54.7553 26.0978L46.9009 21.1196L47.3519 21.2705L42.9925 21.0819L43.8944 20.4785L42.6543 23.7973L42.0906 22.5905L44.0823 23.2693L44.4206 23.3825L44.6085 23.7219L45.3601 25.0796L46.1493 26.5127H44.4957L39.1217 26.5504H38.1822L38.107 25.6076L37.6185 19.5357L38.3325 20.4408L30.5157 17.8386L31.6055 17.6123L28.0729 20.8934L28.2233 19.3848L30.8163 22.9676L30.3278 22.5528L32.282 23.3448L32.733 23.5333L32.9209 24.0236L33.2967 24.9664L33.9731 26.6258H32.1692L28.5991 26.6635H28.1105L27.7347 26.3241L21.7218 20.8179L21.0454 20.2145L21.346 19.3848L22.3231 16.6694L23.9391 18.4043L19.467 19.6488L15.0324 20.9311L15.6337 20.5539L11.8756 24.4384L11.6502 22.3265L13.0031 23.2316L13.4165 23.4956L13.5668 23.9482L13.9426 25.0042L14.5815 26.8144H12.6648L9.09468 26.7767H8.64371L8.2679 26.1733L7.02773 24.2122L6.46402 23.307L6.76467 22.779L11.3871 15.3495L11.6502 14.9346L12.1011 14.8215L15.4834 13.9163L14.8069 14.4443L19.5421 7.1279L19.9179 8.59873L18.4147 7.6936L19.3918 7.73132C18.3771 8.22159 17.4376 8.56102 16.4981 8.97586L13.6044 10.1073C11.6877 10.8615 9.77113 11.5781 7.81693 12.2947L7.59145 12.3701L7.40354 12.3324L3.1945 11.6158L0.300781 10.9747L3.11934 10.2581L7.2908 9.27757L7.4787 9.23986L7.62903 9.27757L9.50806 9.9187L9.09468 9.95642L14.3936 7.24104L17.0242 5.92106L19.6549 4.60109ZM19.6924 4.86508L17.1745 6.41134L14.6566 7.91988L9.62081 10.8993L9.4329 11.0124L9.20742 10.937L7.2908 10.409H7.59145L3.45756 11.6158L3.3824 10.2204L7.62903 10.7107L7.21564 10.7484L12.8903 8.33473L15.7089 7.09018C16.6484 6.67533 17.5879 6.26048 18.4523 5.80792L18.9408 5.54393L19.4294 5.84563L20.9326 6.71305L21.8721 7.24104L21.3084 8.18388L16.7987 15.6135L16.5732 15.9906L16.1223 16.1415L12.7776 17.122L13.4916 16.594L9.01951 24.1367V22.7413L10.2973 24.6647L9.16984 24.0613L12.74 24.0236L11.4623 25.8338L11.0865 24.7779L11.6502 25.4567L10.2597 24.5893L8.86919 23.6842L10.0342 22.4773L13.7923 18.5928L14.0553 18.3288L14.4311 18.2157L18.7905 17.0466L23.2626 15.8397L25.7805 15.1609L24.8786 17.5746L23.8639 20.2899L23.4881 18.8568L29.501 24.4384L28.6742 24.1367L32.2444 24.1744L31.117 25.8338L30.7412 24.891L31.3801 25.5699L29.4634 24.7402L29.1628 24.5893L28.9373 24.2876L26.4194 20.6671L25.8181 19.8374L26.5697 19.1585L30.1399 15.9529L30.6284 15.5003L31.2297 15.7266L39.0089 18.442L39.6854 18.6683L39.723 19.3471L40.1364 25.419L39.1217 24.4762L44.4957 24.5139L43.669 25.947L42.9173 24.5893L43.4435 25.0419L41.4517 24.3253L40.5498 23.9859L40.888 23.0808L42.1657 19.7997L42.3912 19.1585L43.0677 19.1963L47.427 19.4602H47.6525L47.8404 19.5734L55.6196 24.7024L55.1687 24.5893L59.8663 24.627L59.1522 25.7584L58.4006 24.2876L58.9267 24.7024L56.935 24.2122L56.7095 24.1744L56.5591 24.0236L51.1475 18.5551L50.4711 17.8763L51.2978 17.4237L54.3795 15.7266L54.154 15.9529L56.2961 12.7095L56.5216 12.3324L56.935 12.4078L61.1816 13.1998L60.5051 13.5392L62.4969 9.353L62.6472 10.0318L56.5216 4.78965L56.4088 4.67651L56.3712 4.52566L55.8827 2.75312L56.1833 3.09254L49.7195 0.905151H50.0201L37.9567 6.2982L37.8815 6.33591H37.8064L19.6924 4.86508Z" fill="#181818"/>
<path d="M39.272 63.1326H17.0242V39.7879L9.01953 26.3241H41.0007C41.1886 26.3241 46.2996 26.2864 51.5985 28.3984C56.484 30.3595 62.3466 34.5457 62.76 43.5215C62.9855 48.462 61.7829 55.2505 54.7177 59.5121C50.659 61.9635 46.5251 62.4538 46.0366 62.4915C45.6983 62.5669 42.7295 63.1326 39.272 63.1326ZM18.0013 62.4915H39.272C42.7295 62.4915 45.8111 61.8504 45.8487 61.8504H45.9238C45.9614 61.8504 50.1329 61.4355 54.154 58.9841C59.4905 55.7408 62.1211 50.3854 61.8205 43.5215C61.4822 36.5822 57.9121 31.6795 51.1475 28.9641C46.1117 26.9276 41.0759 26.9653 41.0007 26.9653H10.4476L18.0013 39.6748V62.4915Z" fill="#181818" stroke="#181818" stroke-width="3" stroke-miterlimit="10"/>
<path d="M34.1987 59.6252L24.3901 40.2781V30.6989H39.2345C45.9615 30.6989 48.6297 32.6222 48.7425 32.6977L48.9304 32.8485L34.1987 59.6252ZM25.3672 40.1273L34.2363 57.6641L47.8405 32.9994C47.1265 32.5845 44.5334 31.34 39.2721 31.34H25.3672V40.1273Z" fill="#181818" stroke="#181818" stroke-width="3" stroke-miterlimit="10"/>
<path d="M25.4798 42.277L24.3899 40.2404H24.3148L17.4375 27.2669L18.3394 27.0784L26.269 42.1638L25.4798 42.277Z" fill="#181818" stroke="#181818" stroke-width="3" stroke-miterlimit="10"/>
<path d="M30.3656 62.944L17.062 39.8632L17.9639 39.637L31.2675 62.7177L30.3656 62.944Z" fill="#181818" stroke="#181818" stroke-width="3" stroke-miterlimit="10"/>
<path d="M24.2021 59.0218L24.3149 50.7249L29.0125 58.9841L24.2021 59.0218ZM25.2168 54.1945L25.1792 58.3807H27.5844L25.2168 54.1945Z" fill="#181818" stroke="#181818" stroke-width="3" stroke-miterlimit="10"/>
<path d="M38.5958 62.8309L37.6938 62.6046L52.4255 37.1857L52.4631 37.1102C50.6216 34.3949 48.1413 33.188 48.1413 33.188L48.705 32.66C48.8177 32.6977 51.4108 33.9423 53.365 36.8462C53.4402 36.9971 53.5529 37.1102 53.6281 37.2611C54.9434 39.3731 55.5447 41.8244 55.432 44.4644C55.0937 52.2711 51.749 54.8356 49.9452 56.1933C49.7948 56.3065 49.6821 56.3819 49.5694 56.495L49.5318 56.5327C47.7655 57.5887 44.5335 58.4184 41.1889 58.6447C40.1742 60.3041 38.5958 62.8309 38.5958 62.8309ZM52.9892 37.9777L41.4143 57.9659C44.7966 57.7019 47.54 56.8345 48.8177 56.0425C48.9305 55.967 49.0432 55.8539 49.1936 55.7785C50.9223 54.4585 54.0791 52.0448 54.4173 44.4267C54.53 42.0507 54.0791 39.901 52.9892 37.9777Z" fill="#181818" stroke="#181818" stroke-width="3" stroke-miterlimit="10"/>
<path d="M56.6795 31L55.7529 30.7778L58.4942 26.6296H51.9691L50.9266 28.2593L50 28L51.2741 26H60L56.6795 31Z" fill="#181818" stroke="#181818" stroke-width="3" stroke-miterlimit="10"/>
<path d="M10.4473 26.9652L30.6281 62.2652L38.5952 62.8309L52.4249 37.1856L48.1032 33.1502L36.0398 55.1373L34.6868 57.0607L34.2359 57.6641L17.4373 27.2669L10.4473 26.9652Z" fill="#181818"/>
<path d="M50.3584 28.3229L52.275 26.9275L59.3026 26.475L55.9579 31.1515L50.3584 28.3229Z" fill="#181818"/>
</g>
<defs>
<clipPath id="clip0_58_37797">
<rect width="64" height="64" fill="white"/>
</clipPath>
</defs>
</svg>
