<svg width="64" height="60" viewBox="0 0 64 60" fill="none" xmlns="http://www.w3.org/2000/svg">
<g clip-path="url(#clip0_66_6743)">
<path d="M19.6547 4.8067L37.8814 5.85563L37.7311 5.89059L49.7193 0.750837L49.8697 0.680908L50.02 0.715873L56.559 2.63891L56.7845 2.70884L56.8597 2.95359L57.3858 4.59691L57.2355 4.35216L63.4739 9.10731L63.8121 9.35206L63.6242 9.73666L61.7076 13.6527L61.5197 14.0373L61.0311 13.9673L56.7845 13.303L57.461 13.0233L55.3564 16.0302L55.2813 16.1701L55.131 16.24L52.0869 17.8484L52.2372 16.7995L57.724 21.7994L57.3482 21.6245L59.34 22.0441L59.6782 22.114L59.8285 22.4287L60.3923 23.3378L61.1063 24.3867L59.9037 24.8412L55.2061 24.8762H54.9806L54.7551 24.7364L46.9008 20.1211L47.3517 20.2609L42.9924 20.0861L43.8943 19.5267L42.6542 22.6035L42.0904 21.4847L44.0822 22.114L44.4204 22.2189L44.6083 22.5336L45.36 23.7923L46.1492 25.121H44.4956L39.1216 25.1559H38.182L38.1069 24.2818L37.6183 18.6526L38.3324 19.4917L30.5156 17.0792L31.6054 16.8694L28.0728 19.9113L28.2231 18.5127L30.8162 21.8343L30.3277 21.4497L32.2819 22.184L32.7328 22.3588L32.9207 22.8133L33.2965 23.6874L33.973 25.2259H32.1691L28.599 25.2608H28.1104L27.7346 24.9461L21.7217 19.8414L21.0452 19.2819L21.3459 18.5127L22.323 15.9953L23.9389 17.6036L19.4668 18.7575L15.0323 19.9462L15.6336 19.5966L11.8755 23.1979L11.65 21.2399L13.0029 22.0791L13.4163 22.3238L13.5667 22.7434L13.9425 23.7224L14.5813 25.4007H12.6647L9.09455 25.3657H8.64358L8.26778 24.8063L7.02761 22.9881L6.4639 22.149L6.76455 21.6595L11.387 14.7715L11.65 14.3869L12.101 14.282L15.4833 13.4429L14.8068 13.9324L19.542 7.14931L19.9178 8.51291L18.4146 7.67377L19.3917 7.70873C18.377 8.16327 17.4375 8.47795 16.498 8.86256L13.6042 9.91149C11.6876 10.6108 9.77101 11.2751 7.81681 11.9394L7.59132 12.0093L7.40342 11.9744L3.19438 11.3101L0.300659 10.7157L3.11921 10.0513L7.29068 9.14227L7.47858 9.10731L7.6289 9.14227L9.50794 9.73666L9.09455 9.77163L14.3934 7.2542L17.0241 6.03045L19.6547 4.8067ZM19.6923 5.05145L17.1744 6.48498L14.6565 7.88356L9.62068 10.6457L9.43278 10.7506L9.2073 10.6807L7.29068 10.1912H7.59132L3.45744 11.3101L3.38228 10.0164L7.6289 10.4709L7.21552 10.5059L12.8902 8.26816L15.7088 7.11434C16.6483 6.72973 17.5878 6.34513 18.4522 5.92555L18.9407 5.6808L19.4293 5.96052L20.9325 6.7647L21.872 7.2542L21.3083 8.12831L16.7986 15.0163L16.5731 15.3659L16.1222 15.5058L12.7775 16.4148L13.4915 15.9253L9.01939 22.9182V21.6245L10.2971 23.4077L9.16971 22.8483L12.7399 22.8133L11.4621 24.4916L11.0863 23.5126L11.65 24.142L10.2596 23.3378L8.86907 22.4986L10.0341 21.3798L13.7921 17.7785L14.0552 17.5337L14.431 17.4288L18.7904 16.3449L23.2625 15.2261L25.7804 14.5967L24.8785 16.8344L23.8638 19.3518L23.488 18.0232L29.5009 23.1979L28.6741 22.9182L32.2443 22.9532L31.1169 24.4916L30.7411 23.6175L31.3799 24.2469L29.4633 23.4776L29.1627 23.3378L28.9372 23.0581L26.4193 19.7015L25.818 18.9323L26.5696 18.3029L30.1398 15.331L30.6283 14.9114L31.2296 15.1212L39.0088 17.6386L39.6853 17.8484L39.7229 18.4777L40.1362 24.107L39.1216 23.2329L44.4956 23.2679L43.6688 24.5965L42.9172 23.3378L43.4433 23.7574L41.4516 23.093L40.5496 22.7784L40.8879 21.9392L42.1656 18.8973L42.3911 18.3029L43.0675 18.3379L47.4269 18.5826H47.6524L47.8403 18.6875L55.6195 23.4427L55.1685 23.3378L59.8661 23.3727L59.1521 24.4217L58.4005 23.0581L58.9266 23.4427L56.9348 22.9881L56.7093 22.9532L56.559 22.8133L51.1474 17.7435L50.4709 17.1141L51.2977 16.6946L54.3793 15.1212L54.1539 15.331L56.296 12.324L56.5214 11.9744L56.9348 12.0443L61.1815 12.7786L60.505 13.0932L62.4968 9.2122L62.6471 9.84156L56.5214 4.98152L56.4087 4.87663L56.3711 4.73677L55.8826 3.09345L56.1832 3.40812L49.7193 1.38019H50.02L37.9566 6.38009L37.8814 6.41506H37.8062L19.6923 5.05145Z" fill="white"/>
<path d="M39.2718 59.0715H17.024V37.4286L9.01935 24.9463H41.0006C41.1885 24.9463 46.2994 24.9114 51.5983 26.8694C56.4838 28.6875 62.3464 32.5685 62.7598 40.8901C62.9853 45.4704 61.7827 51.764 54.7175 55.7149C50.6588 57.9876 46.5249 58.4421 46.0364 58.4771C45.6982 58.547 42.7293 59.0715 39.2718 59.0715ZM18.0011 58.4771H39.2718C42.7293 58.4771 45.8109 57.8827 45.8485 57.8827H45.9236C45.9612 57.8827 50.1327 57.4981 54.1538 55.2254C59.4903 52.2185 62.1209 47.2536 61.8203 40.8901C61.4821 34.4566 57.9119 29.9113 51.1474 27.3938C46.1115 25.5058 41.0757 25.5407 41.0006 25.5407H10.4474L18.0011 37.3237V58.4771Z" fill="white" stroke="white" stroke-width="3" stroke-miterlimit="10"/>
<path d="M34.1985 55.8198L24.3899 37.8831V29.0022H39.2343C45.9612 29.0022 48.6295 30.7854 48.7422 30.8553L48.9301 30.9952L34.1985 55.8198ZM25.367 37.7433L34.236 54.0017L47.8403 31.135C47.1262 30.7504 44.5332 29.5966 39.2719 29.5966H25.367V37.7433Z" fill="white" stroke="white" stroke-width="3" stroke-miterlimit="10"/>
<path d="M25.4797 39.7361L24.3899 37.8481H24.3147L17.4374 25.8203L18.3394 25.6455L26.2689 39.6312L25.4797 39.7361Z" fill="white" stroke="white" stroke-width="3" stroke-miterlimit="10"/>
<path d="M30.3652 58.8965L17.0616 37.4984L17.9636 37.2886L31.2672 58.6867L30.3652 58.8965Z" fill="white" stroke="white" stroke-width="3" stroke-miterlimit="10"/>
<path d="M24.202 55.2603L24.3147 47.5681L29.0123 55.2253L24.202 55.2603ZM25.2166 50.7848L25.1791 54.6659H27.5842L25.2166 50.7848Z" fill="white" stroke="white" stroke-width="3" stroke-miterlimit="10"/>
<path d="M38.5954 58.7918L37.6935 58.582L52.4251 35.016L52.4627 34.9461C50.6213 32.4287 48.1409 31.3098 48.1409 31.3098L48.7046 30.8203C48.8174 30.8553 51.4105 32.0091 53.3646 34.7014C53.4398 34.8412 53.5526 34.9461 53.6277 35.086C54.943 37.044 55.5443 39.3166 55.4316 41.7641C55.0934 49.0018 51.7487 51.3793 49.9448 52.638C49.7945 52.7429 49.6817 52.8129 49.569 52.9178L49.5314 52.9527C47.7651 53.9317 44.5332 54.7009 41.1885 54.9107C40.1738 56.4492 38.5954 58.7918 38.5954 58.7918ZM52.9888 35.7503L41.414 54.2814C44.7962 54.0366 47.5396 53.2324 48.8174 52.4982C48.9301 52.4283 49.0429 52.3234 49.1932 52.2534C50.9219 51.0297 54.0787 48.792 54.4169 41.7292C54.5297 39.5264 54.0787 37.5335 52.9888 35.7503Z" fill="white" stroke="white" stroke-width="3" stroke-miterlimit="10"/>
<path d="M56.6795 29.2813L55.7529 29.0752L58.4942 25.2295H51.9691L50.9266 26.7403L50 26.5L51.2741 24.6458H60L56.6795 29.2813Z" fill="white" stroke="white" stroke-width="3" stroke-miterlimit="10"/>
<path d="M10.4474 25.5405L30.6283 58.2671L38.5954 58.7916L52.4251 35.0159L48.1033 31.2747L36.0399 51.6589L34.687 53.442L34.2361 54.0015L17.4375 25.8202L10.4474 25.5405Z" fill="white"/>
<path d="M50.3582 26.7992L52.2748 25.5055L59.3024 25.0859L55.9577 29.4215L50.3582 26.7992Z" fill="white"/>
</g>
<defs>
<clipPath id="clip0_66_6743">
<rect width="64" height="59.3344" fill="white" transform="translate(0 0.541016)"/>
</clipPath>
</defs>
</svg>
